HIERARCHY
ROOT Hips
{
	OFFSET 0.000000 0.000000 0.000000
	CHANNELS 6 Xposition Yposition Zposition Xrotation Yrotation Zrotation
	JOINT LeftUpLeg_virtual
	{
		OFFSET 0.000000 0.000000 0.000000
		CHANNELS 3 Xrotation Yrotation Zrotation
		JOINT LeftUpLeg
		{
			OFFSET 15.427100 -6.655098 0.678600
			CHANNELS 3 Xrotation Yrotation Zrotation
			JOINT LeftLeg
			{
				OFFSET 4.081073 -39.591068 13.024000
				CHANNELS 3 Xrotation Yrotation Zrotation
				JOINT LeftFoot
				{
					OFFSET -4.081074 -37.707932 -15.979700
					CHANNELS 3 Xrotation Yrotation Zrotation
					JOINT LeftToeBase
					{
						OFFSET 5.346399 -15.068900 20.645000
						CHANNELS 3 Xrotation Yrotation Zrotation
						JOINT LeftToe_End
						{
							OFFSET 2.754700 0.931300 11.300900
							CHANNELS 3 Xrotation Yrotation Zrotation
							End Site
							{
								OFFSET 0 0 0
							}
						}
					}
				}
			}
		}
	}
	JOINT RightUpLeg_virtual
	{
		OFFSET 0.000000 0.000000 0.000000
		CHANNELS 3 Xrotation Yrotation Zrotation
		JOINT RightUpLeg
		{
			OFFSET -15.569500 -6.655098 0.678600
			CHANNELS 3 Xrotation Yrotation Zrotation
			JOINT RightLeg
			{
				OFFSET -4.081825 -39.591045 13.023800
				CHANNELS 3 Xrotation Yrotation Zrotation
				JOINT RightFoot
				{
					OFFSET 4.081824 -37.707954 -15.979600
					CHANNELS 3 Xrotation Yrotation Zrotation
					JOINT RightToeBase
					{
						OFFSET -5.346400 -15.068900 20.645000
						CHANNELS 3 Xrotation Yrotation Zrotation
						JOINT RightToe_End
						{
							OFFSET -2.754700 0.931300 11.300900
							CHANNELS 3 Xrotation Yrotation Zrotation
							End Site
							{
								OFFSET 0 0 0
							}
						}
					}
				}
			}
		}
	}
	JOINT Spine_virtual
	{
		OFFSET 0.000000 0.000000 0.000000
		CHANNELS 3 Xrotation Yrotation Zrotation
		JOINT Spine
		{
			OFFSET -0.279200 12.230698 -2.892100
			CHANNELS 3 Xrotation Yrotation Zrotation
			JOINT Spine1
			{
				OFFSET -0.232667 10.192268 -1.242267
				CHANNELS 3 Xrotation Yrotation Zrotation
				JOINT Spine1_split
				{
					OFFSET -0.232667 10.192268 -1.242267
					CHANNELS 3 Xrotation Yrotation Zrotation
					JOINT Spine2
					{
						OFFSET -0.232667 10.192268 -1.242267
						CHANNELS 3 Xrotation Yrotation Zrotation
						JOINT Neck_virtual
						{
							OFFSET 0.000000 0.000000 0.000000
							CHANNELS 3 Xrotation Yrotation Zrotation
							JOINT Neck
							{
								OFFSET -0.418800 17.814194 8.416900
								CHANNELS 3 Xrotation Yrotation Zrotation
								JOINT Head
								{
									OFFSET 0.000000 7.031097 3.806800
									CHANNELS 3 Xrotation Yrotation Zrotation
									JOINT HeadTop_End
									{
										OFFSET 0.000000 24.646606 12.978600
										CHANNELS 3 Xrotation Yrotation Zrotation
										End Site
										{
											OFFSET 0 0 0
										}
									}
								}
							}
						}
						JOINT LeftShoulder_virtual
						{
							OFFSET 0.000000 0.000000 0.000000
							CHANNELS 3 Xrotation Yrotation Zrotation
							JOINT LeftShoulder
							{
								OFFSET 8.476499 7.247704 -3.868750
								CHANNELS 3 Xrotation Yrotation Zrotation
								JOINT LeftShoulder_split
								{
									OFFSET 8.476499 7.247704 -3.868750
									CHANNELS 3 Xrotation Yrotation Zrotation
									JOINT LeftArm
									{
										OFFSET 9.308998 -2.777710 0.208600
										CHANNELS 3 Xrotation Yrotation Zrotation
										JOINT LeftForeArm
										{
											OFFSET 29.972298 0.000000 0.000000
											CHANNELS 3 Xrotation Yrotation Zrotation
											JOINT LeftHand
											{
												OFFSET 26.026505 0.000000 0.000000
												CHANNELS 3 Xrotation Yrotation Zrotation
												End Site
												{
													OFFSET 0 0 0
												}
											}
										}
									}
								}
							}
						}
						JOINT RightShoulder_virtual
						{
							OFFSET 0.000000 0.000000 0.000000
							CHANNELS 3 Xrotation Yrotation Zrotation
							JOINT RightShoulder
							{
								OFFSET -7.570500 7.247704 -3.868750
								CHANNELS 3 Xrotation Yrotation Zrotation
								JOINT RightShoulder_split
								{
									OFFSET -7.570500 7.247704 -3.868750
									CHANNELS 3 Xrotation Yrotation Zrotation
									JOINT RightArm
									{
										OFFSET -9.308998 -2.777710 0.208500
										CHANNELS 3 Xrotation Yrotation Zrotation
										JOINT RightForeArm
										{
											OFFSET -29.972300 0.000000 0.000000
											CHANNELS 3 Xrotation Yrotation Zrotation
											JOINT RightHand
											{
												OFFSET -26.026505 0.000000 0.000000
												CHANNELS 3 Xrotation Yrotation Zrotation
												End Site
												{
													OFFSET 0 0 0
												}
											}
										}
									}
								}
							}
						}
					}
				}
			}
		}
	}
}
MOTION
Frames: 11
Frame Time: 0.03333333
-0.107045 90.430367 11.781807 0.000000 0.000000 0.000000 2.838916 32.511796 -1.481155 -19.778882 7.610917 6.691429 20.868769 -18.055796 -7.953954 -9.072662 -11.344202 0.848342 -0.844112 -0.642957 -0.154178 0.000000 0.000000 0.000000 3.146935 32.265390 -1.931042 -8.973666 14.817768 1.175702 20.972697 19.916719 2.870754 -11.975154 3.481931 -1.394811 -5.535970 -0.687097 1.695446 0.000000 0.000000 0.000000 3.383780 33.698651 -2.093584 7.102543 1.036493 -1.157413 0.559246 0.718048 1.361473 0.620251 0.524876 0.578026 0.000000 0.000000 0.000000 1.037615 1.054344 1.510009 -3.433969 29.095793 -7.974754 -6.898274 22.739272 -2.430488 0.000000 0.000000 0.000000 1.350383 1.065879 1.771658 0.086838 -3.208915 -1.447507 4.912057 0.510215 -2.311332 -63.486622 18.523676 -19.201625 10.553620 -74.541700 12.604457 0.000000 0.000000 0.000000 1.370893 1.071080 1.393468 4.615502 6.313427 9.025144 -2.865191 -0.843210 1.113121 11.827882 21.775184 62.835705 10.507474 22.924939 -4.212628 0.000000 0.000000 0.000000 
-1.523061 90.639305 12.534180 0.000000 0.000000 0.000000 3.259374 37.790870 -2.295489 -20.565980 8.290849 8.331031 20.637869 -18.663717 -7.667270 -8.632622 -9.995474 0.379962 -1.293413 -0.721656 0.336985 0.000000 0.000000 0.000000 3.712056 37.707098 -2.851204 -8.291074 13.985422 1.065565 19.808860 17.371623 4.595481 -12.161588 2.170247 -2.373683 -3.713130 -0.636113 1.726562 0.000000 0.000000 0.000000 3.618517 38.775759 -2.867778 7.280075 0.724522 -1.510230 0.531950 0.444827 1.357101 0.705973 0.514046 0.600027 0.000000 0.000000 0.000000 1.063707 0.790201 1.584711 -3.589242 27.357322 -8.068966 -7.666836 20.822761 -1.017926 0.000000 0.000000 0.000000 1.250685 0.800921 1.874053 0.127922 -6.411657 -0.699717 4.724634 0.478270 -2.154206 -63.633348 16.487119 -20.729880 9.706917 -72.803710 12.054352 0.000000 0.000000 0.000000 1.296790 0.796549 1.511506 4.566373 6.214314 8.744898 -3.334124 -0.716558 1.006948 10.928729 18.696652 63.328722 10.653077 23.404874 -4.400568 0.000000 0.000000 0.000000 
-2.891672 90.748489 12.866810 0.000000 0.000000 0.000000 3.796797 42.597817 -3.287443 -21.650530 8.876240 10.334411 19.996615 -18.086542 -7.134690 -7.934002 -8.357440 -0.172876 -1.345529 -0.778195 0.822746 0.000000 0.000000 0.000000 4.424111 42.432205 -3.923982 -8.179601 12.809641 1.317313 19.366638 14.674270 5.984994 -12.568727 0.810174 -2.958949 -1.862616 -0.412108 1.672829 0.000000 0.000000 0.000000 4.150803 43.354878 -3.850066 7.459589 0.554715 -1.854051 0.552794 0.258978 1.412329 0.820356 0.462360 0.623812 0.000000 0.000000 0.000000 1.148448 0.600982 1.707970 -3.864895 25.719834 -8.062284 -8.453928 18.953599 0.326014 0.000000 0.000000 0.000000 1.205895 0.605249 2.011864 0.226729 -9.192920 -0.013263 4.314886 0.282637 -1.904893 -63.825372 14.507672 -22.086895 8.868870 -71.133128 11.533376 0.000000 0.000000 0.000000 1.231117 0.594255 1.678080 4.508771 6.207225 8.491412 -3.610841 -0.587600 0.790781 9.393581 14.715171 63.813658 10.749006 24.056695 -4.573147 0.000000 0.000000 0.000000 
-4.189645 90.774979 12.869198 0.000000 0.000000 0.000000 4.399858 46.951263 -4.321039 -22.967530 9.089847 12.585509 19.059928 -16.409874 -6.420020 -6.800476 -6.547331 -0.763832 -0.631535 -0.792826 1.062463 0.000000 0.000000 0.000000 5.152108 46.469694 -5.000794 -8.453285 11.739486 1.856044 19.499085 12.159582 6.807058 -12.955237 -0.498477 -2.993138 -0.765478 -0.090903 1.522371 0.000000 0.000000 0.000000 4.866031 47.448925 -4.935840 7.623686 0.479880 -2.183075 0.606946 0.127334 1.543558 0.884998 0.357353 0.624119 0.000000 0.000000 0.000000 1.269846 0.462021 1.884518 -4.167299 24.213239 -7.971509 -9.178916 17.242616 1.526036 0.000000 0.000000 0.000000 1.204882 0.449109 2.188491 0.361200 -11.449574 0.580107 3.726036 -0.085228 -1.730881 -64.139697 12.683598 -23.317576 8.273475 -69.570907 11.238450 0.000000 0.000000 0.000000 1.167515 0.444493 1.898252 4.463213 6.258447 8.254471 -3.675593 -0.449467 0.541985 7.280353 9.992399 64.213026 10.711074 24.747111 -4.656147 0.000000 0.000000 0.000000 
-5.385755 90.717064 12.596558 0.000000 0.000000 0.000000 4.995094 50.782600 -5.258225 -24.237309 8.923427 14.795962 18.485924 -13.713819 -5.509930 -5.308410 -4.543899 -1.086264 0.729013 -0.713523 0.892213 0.000000 0.000000 0.000000 5.793343 49.968568 -5.937813 -8.893058 10.925665 2.574543 19.998278 10.003784 6.999053 -13.103434 -1.806037 -2.464151 -1.109824 0.196525 1.337306 0.000000 0.000000 0.000000 5.559117 51.047263 -5.974532 7.780694 0.423085 -2.516147 0.673622 0.003640 1.734459 0.948646 0.257223 0.659095 0.000000 0.000000 0.000000 1.396541 0.335215 2.107896 -4.358526 22.871163 -7.846938 -9.762053 15.790390 2.509658 0.000000 0.000000 0.000000 1.221687 0.298733 2.386661 0.496437 -13.140385 1.017123 3.071739 -0.625729 -1.622676 -64.559829 11.061368 -24.446772 8.031307 -68.044339 11.241527 0.000000 0.000000 0.000000 1.097127 0.313163 2.163239 4.438337 6.293843 8.009882 -3.612247 -0.326202 0.209904 4.741131 4.832630 64.466652 10.478146 25.337685 -4.584165 0.000000 0.000000 0.000000 
-6.337479 90.539154 12.138664 0.000000 0.000000 0.000000 5.548965 54.140382 -5.989544 -25.135193 8.525523 16.681728 18.601612 -10.157481 -4.407788 -3.829941 -2.411340 -0.919131 2.274269 -0.554009 0.318512 0.000000 0.000000 0.000000 6.305940 53.026221 -6.655811 -9.209162 10.313732 3.225995 20.712217 8.315894 6.671013 -13.202032 -2.973181 -1.617168 -2.364696 0.406121 1.186928 0.000000 0.000000 0.000000 6.025724 54.237190 -6.736678 7.935426 0.327821 -2.860962 0.739164 -0.146531 1.965072 0.889491 0.241427 0.635613 0.000000 0.000000 0.000000 1.496574 0.188767 2.361190 -4.378684 21.707994 -7.741307 -10.146185 14.665562 3.252071 0.000000 0.000000 0.000000 1.245760 0.130772 2.589048 0.600738 -14.325849 1.251769 2.445459 -1.151644 -1.588831 -64.945100 9.686931 -25.512602 8.108270 -66.490000 11.479808 0.000000 0.000000 0.000000 1.028415 0.166865 2.456019 4.446121 6.269367 7.747431 -3.427659 -0.254690 -0.121826 2.024055 -0.395238 64.546517 10.042566 25.773632 -4.341027 0.000000 0.000000 0.000000 
-7.030681 90.310272 11.571884 0.000000 0.000000 0.000000 5.886237 56.935996 -6.372870 -25.364437 8.215913 18.106036 19.523553 -6.175542 -3.252669 -2.842907 -0.509469 -0.395926 3.298649 -0.327399 -0.459560 0.000000 0.000000 0.000000 6.561344 55.596804 -7.043948 -9.306613 9.583175 3.580025 21.540132 6.959509 5.984002 -13.467964 -3.960470 -1.033719 -3.404767 0.559589 1.115282 0.000000 0.000000 0.000000 6.176613 57.069946 -7.137039 8.098578 0.171845 -3.193977 0.789486 -0.330419 2.206070 0.797690 0.326333 0.605533 0.000000 0.000000 0.000000 1.534877 0.003778 2.610776 -4.197580 20.724575 -7.697102 -10.290799 13.855816 3.758046 0.000000 0.000000 0.000000 1.260398 -0.075637 2.770329 0.661932 -15.107858 1.292408 1.971873 -1.565604 -1.487165 -65.206764 8.570830 -26.562122 8.369590 -64.894823 11.828785 0.000000 0.000000 0.000000 0.978475 -0.009148 2.747616 4.494649 6.126561 7.453851 -3.180613 -0.244174 -0.407093 -0.574952 -5.185234 64.456003 9.486066 26.096000 -3.978551 0.000000 0.000000 0.000000 
-7.395367 90.081070 10.866169 0.000000 0.000000 0.000000 5.888228 59.241168 -6.347787 -25.027444 8.250780 19.005905 20.910669 -2.285333 -2.261892 -2.493390 0.707537 0.150366 3.548475 -0.066195 -1.197606 0.000000 0.000000 0.000000 6.595588 57.837092 -7.122334 -9.301466 8.540211 3.481849 22.297603 5.837606 5.180155 -13.894340 -4.799638 -0.888483 -3.555801 0.671037 1.104962 0.000000 0.000000 0.000000 5.985905 59.554223 -7.122828 8.273330 -0.031469 -3.476889 0.824578 -0.535916 2.424513 0.730579 0.455252 0.571934 0.000000 0.000000 0.000000 1.507656 -0.211325 2.829437 -3.875691 19.900330 -7.709065 -10.183404 13.335493 4.039429 0.000000 0.000000 0.000000 1.272304 -0.307984 2.912467 0.682064 -15.617899 1.166880 1.732203 -1.788252 -1.286591 -65.235936 7.723305 -27.631558 8.719509 -63.377032 12.193157 0.000000 0.000000 0.000000 0.957554 -0.209249 3.011570 4.581838 5.874869 7.141388 -2.899895 -0.285294 -0.608353 -2.804675 -9.105808 64.316401 8.911174 26.361836 -3.568429 0.000000 0.000000 0.000000 
-7.440196 89.933418 10.009232 0.000000 0.000000 0.000000 5.569992 61.189110 -5.974598 -24.313057 8.802767 19.471886 22.170246 0.878959 -1.642273 -2.548016 0.796030 0.124879 3.235143 0.183091 -1.683318 0.000000 0.000000 0.000000 6.267875 59.809918 -6.835232 -9.234362 7.220384 2.874130 22.778068 5.017684 4.434292 -14.257795 -5.416795 -0.984865 -2.902089 0.758072 1.054751 0.000000 0.000000 0.000000 5.608732 61.786929 -6.815275 8.450752 -0.239075 -3.646399 0.857046 -0.741956 2.600042 0.609932 0.580598 0.489112 0.000000 0.000000 0.000000 1.418853 -0.436656 2.986084 -3.518930 19.193291 -7.768770 -9.847593 13.011516 4.149244 0.000000 0.000000 0.000000 1.285476 -0.549766 3.005539 0.679196 -16.005843 0.967629 1.757753 -1.866606 -0.978296 -65.048365 7.150787 -28.775457 9.063159 -62.169386 12.509830 0.000000 0.000000 0.000000 0.982621 -0.414867 3.225282 4.707809 5.539892 6.822493 -2.663523 -0.337244 -0.706382 -4.452425 -11.856521 64.264307 8.444551 26.506846 -3.208140 0.000000 0.000000 0.000000 
-7.255857 89.972061 9.049694 0.000000 0.000000 0.000000 5.053447 62.828369 -5.360563 -23.459806 9.801769 19.669761 22.935722 3.041821 -1.525445 -2.507801 -0.225681 -0.842593 2.937967 0.386152 -1.859726 0.000000 0.000000 0.000000 5.716919 61.526918 -6.295074 -9.127353 5.696482 1.793347 22.972288 4.560143 3.851692 -14.173157 -5.850654 -0.850420 -2.170744 0.829149 0.903736 0.000000 0.000000 0.000000 5.305953 63.723397 -6.466020 8.622669 -0.420691 -3.660151 0.895647 -0.926846 2.717064 0.552201 0.738713 0.457436 0.000000 0.000000 0.000000 1.302074 -0.642364 3.065385 -3.204108 18.566428 -7.854969 -9.358981 12.770501 4.142105 0.000000 0.000000 0.000000 1.310311 -0.779777 3.047860 0.672522 -16.334566 0.776348 1.972931 -1.909202 -0.614076 -64.722948 6.827195 -29.973759 9.381455 -61.480978 12.775564 0.000000 0.000000 0.000000 1.052808 -0.597400 3.370175 4.852830 5.167970 6.513679 -2.494222 -0.338090 -0.703181 -5.427968 -13.309646 64.401184 8.176611 26.462685 -2.961361 0.000000 0.000000 0.000000 
-6.869181 90.203552 8.022072 0.000000 0.000000 0.000000 4.588978 64.194462 -4.769128 -22.549663 11.171597 19.689917 22.875442 4.347286 -1.889657 -2.091045 -1.907925 -2.546109 2.913813 0.520288 -1.746328 0.000000 0.000000 0.000000 5.151526 62.977841 -5.697870 -8.916441 4.197774 0.393660 22.706872 4.434990 3.505183 -13.644806 -6.100431 -0.104163 -1.780913 0.868338 0.650606 0.000000 0.000000 0.000000 5.176609 65.276091 -6.213485 8.793275 -0.554508 -3.512480 0.942864 -1.077906 2.766283 0.510566 0.882964 0.454752 0.000000 0.000000 0.000000 1.198471 -0.805769 3.066819 -2.996397 18.001416 -7.966319 -8.810948 12.508505 4.064354 0.000000 0.000000 0.000000 1.356017 -0.967885 3.039999 0.677820 -16.610696 0.648885 2.247465 -1.873825 -0.288568 -64.327801 6.717586 -31.224657 9.658468 -61.364270 12.981912 0.000000 0.000000 0.000000 1.147868 -0.739167 3.435835 4.993429 4.813005 6.212551 -2.425395 -0.312550 -0.610267 -5.757660 -13.595900 64.765438 8.163919 26.189459 -2.881867 0.000000 0.000000 0.000000 
